<?xml version="1.0" encoding="iso-8859-1"?>
<!-- Generator: Adobe Illustrator 19.0.0, SVG Export Plug-In . SVG Version: 6.00 Build 0)  -->
<svg version="1.1" id="Capa_1" xmlns="http://www.w3.org/2000/svg" xmlns:xlink="http://www.w3.org/1999/xlink" x="0px" y="0px"
	 viewBox="0 0 512.001 512.001" style="enable-background:new 0 0 512.001 512.001;" xml:space="preserve">
<g>
	<g>
		<path d="M322.71,242.582c-7.397-3.677-16.406-0.703-20.127,6.709c-6.416,12.832-26.748,12.832-33.164,0
			c-5.352-10.741-21.432-10.77-26.836,0c-6.416,12.832-26.748,12.832-33.164,0c-3.706-7.412-12.729-10.386-20.127-6.709
			c-7.412,3.706-10.415,12.715-6.709,20.127c8.276,16.553,24.917,26.836,43.418,26.836c11.272,0,21.581-4.177,30-10.902
			c8.419,6.725,18.728,10.902,30,10.902c18.501,0,35.142-10.283,43.418-26.836C333.125,255.297,330.122,246.288,322.71,242.582z"/>
	</g>
</g>
<g>
	<g>
		<path d="M316.001,181h-30c-8.291,0-15,6.709-15,15c0,8.291,6.709,15,15,15h30c8.291,0,15-6.709,15-15
			C331.001,187.709,324.292,181,316.001,181z"/>
	</g>
</g>
<g>
	<g>
		<path d="M226.001,181h-30c-8.291,0-15,6.709-15,15c0,8.291,6.709,15,15,15h30c8.291,0,15-6.709,15-15
			C241.001,187.709,234.292,181,226.001,181z"/>
	</g>
</g>
<g>
	<g>
		<path d="M256.001,0c-107.52,0-195,95.204-195,211c0,103.233,143.423,185.001,180,204.175V497c0,8.291,6.709,15,15,15
			c8.291,0,15-6.709,15-15v-81.825c36.577-19.175,180-100.942,180-204.175C451.001,95.204,363.521,0,256.001,0z M277.196,369.848
			L271,374.803v-28.802c0-8.291-6.709-15-15-15s-15,6.709-15,15v28.804l-6.182-4.942c-61.654-49.352-94.496-125.743-87.875-204.361
			c0.703-8.262,7.236-14.502,15.19-14.502h187.734c7.954,0,14.487,6.24,15.19,14.502
			C371.678,244.12,338.836,320.512,277.196,369.848z"/>
	</g>
</g>
<g>
	<g>
		<path d="M93.813,344.376c-15.934,10.977-27.589,27.751-31.379,47.446c-17.151,2.031-32.929,13.246-38.498,29.939L0.777,492.254
			c-1.538,4.585-0.762,9.609,2.051,13.521c2.827,3.911,7.354,6.226,12.173,6.226h196v-79.002
			C181.409,416.316,133.146,385.756,93.813,344.376z"/>
	</g>
</g>
<g>
	<g>
		<path d="M511.224,492.253l-23.159-70.492c-5.568-16.694-21.347-27.909-38.498-29.94c-3.79-19.696-15.445-36.468-31.381-47.445
			c-39.313,41.358-87.554,71.909-117.186,88.619V512h196c4.819,0,9.346-2.314,12.173-6.226
			C511.986,501.863,512.762,496.838,511.224,492.253z"/>
	</g>
</g>
<g>
</g>
<g>
</g>
<g>
</g>
<g>
</g>
<g>
</g>
<g>
</g>
<g>
</g>
<g>
</g>
<g>
</g>
<g>
</g>
<g>
</g>
<g>
</g>
<g>
</g>
<g>
</g>
<g>
</g>
</svg>
