<?xml version="1.0" encoding="UTF-8" standalone="no"?>
<svg
   xmlns:dc="http://purl.org/dc/elements/1.1/"
   xmlns:cc="http://creativecommons.org/ns#"
   xmlns:rdf="http://www.w3.org/1999/02/22-rdf-syntax-ns#"
   xmlns:svg="http://www.w3.org/2000/svg"
   xmlns="http://www.w3.org/2000/svg"
   id="svg7942"
   version="1.1"
   viewBox="0 0 85.173813 85.672081"
   height="85.672081mm"
   width="85.173813mm">
  <defs
     id="defs7936" />
  <metadata
     id="metadata7939">
    <rdf:RDF>
      <cc:Work
         rdf:about="">
        <dc:format>image/svg+xml</dc:format>
        <dc:type
           rdf:resource="http://purl.org/dc/dcmitype/StillImage" />
        <dc:title></dc:title>
      </cc:Work>
    </rdf:RDF>
  </metadata>
  <g
     transform="translate(128.76548,-90.878244)"
     id="layer1">
    <g
       transform="translate(-151.19048,18.142857)"
       id="g7915">
      <g
         id="g7805"
         transform="matrix(0.0524231,0,0,0.0524231,62.986708,110.71644)">
        <g
           id="g7703">
          <g
             id="g7701">
            <path
               id="path7699"
               d="m 322.71,242.582 c -7.397,-3.677 -16.406,-0.703 -20.127,6.709 -6.416,12.832 -26.748,12.832 -33.164,0 -5.352,-10.741 -21.432,-10.77 -26.836,0 -6.416,12.832 -26.748,12.832 -33.164,0 -3.706,-7.412 -12.729,-10.386 -20.127,-6.709 -7.412,3.706 -10.415,12.715 -6.709,20.127 8.276,16.553 24.917,26.836 43.418,26.836 11.272,0 21.581,-4.177 30,-10.902 8.419,6.725 18.728,10.902 30,10.902 18.501,0 35.142,-10.283 43.418,-26.836 3.706,-7.412 0.703,-16.421 -6.709,-20.127 z" />
          </g>
        </g>
        <g
           id="g7709">
          <g
             id="g7707">
            <path
               id="path7705"
               d="m 316.001,181 h -30 c -8.291,0 -15,6.709 -15,15 0,8.291 6.709,15 15,15 h 30 c 8.291,0 15,-6.709 15,-15 0,-8.291 -6.709,-15 -15,-15 z" />
          </g>
        </g>
        <g
           id="g7715">
          <g
             id="g7713">
            <path
               id="path7711"
               d="m 226.001,181 h -30 c -8.291,0 -15,6.709 -15,15 0,8.291 6.709,15 15,15 h 30 c 8.291,0 15,-6.709 15,-15 0,-8.291 -6.709,-15 -15,-15 z" />
          </g>
        </g>
        <g
           id="g7721">
          <g
             id="g7719">
            <path
               id="path7717"
               d="m 256.001,0 c -107.52,0 -195,95.204 -195,211 0,103.233 143.423,185.001 180,204.175 V 497 c 0,8.291 6.709,15 15,15 8.291,0 15,-6.709 15,-15 v -81.825 c 36.577,-19.175 180,-100.942 180,-204.175 0,-115.796 -87.48,-211 -195,-211 z m 21.195,369.848 -6.196,4.955 v -28.802 c 0,-8.291 -6.709,-15 -15,-15 -8.291,0 -15,6.709 -15,15 v 28.804 l -6.182,-4.942 C 173.164,320.511 140.322,244.12 146.943,165.502 147.646,157.24 154.179,151 162.133,151 h 187.734 c 7.954,0 14.487,6.24 15.19,14.502 6.621,78.618 -26.221,155.01 -87.861,204.346 z" />
          </g>
        </g>
        <g
           id="g7727">
          <g
             id="g7725">
            <path
               id="path7723"
               d="m 93.813,344.376 c -15.934,10.977 -27.589,27.751 -31.379,47.446 -17.151,2.031 -32.929,13.246 -38.498,29.939 L 0.777,492.254 c -1.538,4.585 -0.762,9.609 2.051,13.521 2.827,3.911 7.354,6.226 12.173,6.226 h 196 V 432.999 C 181.409,416.316 133.146,385.756 93.813,344.376 Z" />
          </g>
        </g>
        <g
           id="g7733">
          <g
             id="g7731">
            <path
               id="path7729"
               d="m 511.224,492.253 -23.159,-70.492 c -5.568,-16.694 -21.347,-27.909 -38.498,-29.94 -3.79,-19.696 -15.445,-36.468 -31.381,-47.445 C 378.873,385.734 330.632,416.285 301,432.995 V 512 h 196 c 4.819,0 9.346,-2.314 12.173,-6.226 2.813,-3.911 3.589,-8.936 2.051,-13.521 z" />
          </g>
        </g>
        <g
           id="g7735" />
        <g
           id="g7737" />
        <g
           id="g7739" />
        <g
           id="g7741" />
        <g
           id="g7743" />
        <g
           id="g7745" />
        <g
           id="g7747" />
        <g
           id="g7749" />
        <g
           id="g7751" />
        <g
           id="g7753" />
        <g
           id="g7755" />
        <g
           id="g7757" />
        <g
           id="g7759" />
        <g
           id="g7761" />
        <g
           id="g7763" />
      </g>
      <g
         id="g7858"
         transform="matrix(0.26458333,0,0,0.26458333,-44.382291,31.301638)">
        <g
           id="paths-0">
          <g
             id="Access_control-63" />
          <g
             id="Azure_active_directory-2" />
          <g
             id="Generic_code-0" />
          <g
             id="Laptop-6" />
          <g
             id="Load_balancer-1" />
          <g
             id="Lock_x2C__protected-5" />
        </g>
        <g
           id="symbols-5" />
        <g
           id="slices-4" />
        <g
           id="User-7" />
        <g
           id="Video-6" />
        <g
           id="Virtual_machine_2-5" />
        <g
           id="Web-6" />
        <g
           id="Web_server-9" />
        <g
           id="Windows_server-3" />
        <g
           id="Workstation_client-7">
          <g
             id="g7828">
            <path
               id="path7822"
               d="M 567.7,274.8 H 346.4 c -3.9,0 -7.9,3.2 -7.9,7.9 v 140.2 c 0,3.9 3.2,10.2 7.9,10.2 h 94.5 c 0,8.7 0,14.2 0,15 0,4.7 -7.1,13.4 -12.6,13.4 -1.6,0 -15.8,0 -15.8,0 -17.3,0 -29.9,4.7 -29.9,14.2 0,4.7 -0.8,4.7 16.5,4.7 0,0 4.7,0 8.7,0 13.4,0 15.8,-7.9 29.1,-7.9 4.7,0 29.1,0 33.9,0 13.4,0 23.6,7.9 32.3,7.9 4.7,0 8.7,0 8.7,0 17.3,0 17.3,-0.8 17.3,-4.7 0,-8.7 -13.4,-14.2 -30.7,-14.2 0,0 -14.2,0 -15.8,0 -4.7,0 -11,-8.7 -11,-13.4 0,-0.8 0,-6.3 0,-15 h 94.5 c 3.9,0 7.9,-5.5 7.9,-10.2 V 282.6 c 1.6,-3.9 -1.6,-7.8 -6.3,-7.8 z M 552,408.7 H 363 V 298.4 h 189 z"
               style="fill:#00188f" />
            <g
               id="g7826">
              <path
                 id="path7824"
                 d="M 323.5,400.8 V 282.6 c 0,-12.6 10.2,-23.6 23.6,-23.6 h 63 v -86.6 c 0,-8.7 -7.1,-15.8 -15.8,-15.8 h -126 c -8.7,0 -15.8,7.1 -15.8,15.8 v 307.2 h 115.8 c 0,-1.6 0,-3.9 0,-4.7 V 474 c 0,-5.5 1.6,-19.7 22.1,-26.8 H 387.2 348 277.1 v -15.8 h 49.6 c -1.6,-3.2 -2.4,-7.1 -2.4,-10.2 v -5.5 H 277 V 400 h 46.5 z M 276.3,196 h 110.3 v 23.6 H 276.3 Z"
                 style="fill:#00188f" />
            </g>
          </g>
        </g>
      </g>
    </g>
  </g>
</svg>
